<?xml version="1.0" encoding="UTF-8"?>
<svg id="Layer_1" xmlns="http://www.w3.org/2000/svg" version="1.1" viewBox="0 0 400 400">
  <!-- Generator: Adobe Illustrator 30.3.0, SVG Export Plug-In . SVG Version: 2.1.3 Build 182)  -->
  <defs>
    <style>
      .st0 {
        fill: #fff;
      }

      .st1 {
        fill: #fbd106;
      }

      .st2 {
        fill: #f9a703;
      }

      .st3 {
        fill: none;
        stroke: #000;
        stroke-width: 5.2px;
      }

      .st4 {
        fill: #0090d4;
      }

      .st5 {
        fill: #067ac1;
      }
    </style>
  </defs>
  <g>
    <path class="st5" d="M43,373.7h-1.3c-4.3-.4-8.5-2.2-10.8-6.2s-2.7-8.8-1.2-13.2,6.9-8.7,12.6-8.8c9-.2,13.7,7.4,13.2,15.7h-19.3c.2-2.5,2.2-4.6,4.7-4.7h7.1c-.3-1.8-.8-3.5-2.1-4.5-2.8-2.2-7.4-1.4-9.1,1.9s-1.5,7.2-.2,10.5,3,3.5,5.4,3.6,5.4-1,6.6-3.5h6.4c-1.9,6.3-5.8,8.5-12,9.1Z"/>
    <path class="st5" d="M81.5,373h-7.3s0-16.7,0-16.7c0-1.3-.3-2.9-1.3-3.8s-3.5-1.3-5.3-.5-2.7,2.5-2.7,4.5v16.6c-.1,0-7.4,0-7.4,0v-26.7s7,0,7,0v3.3c2.3-3.1,5.6-4.5,9.4-4.2s5.5,1.6,6.7,4.4c2.5-3.6,6.1-4.8,10.1-4.3s7.6,3.5,7.7,8v19.3c-2.4.3-4.7.3-7.2,0v-17.5c0-2.4-1.6-3.9-3.9-4.2s-5.4,1.7-5.5,4.9v16.8Z"/>
    <path class="st5" d="M31.7,372.8c-3.3.3-6.4.5-9.5,0l-10.7-15.2-3.6,3.6v11.6c-2.4.3-4.7.4-7.3,0v-35.1s7.2,0,7.2,0v14.4s13.6-14.3,13.6-14.3h9.5s-14.4,14.4-14.4,14.4l15.1,20.6Z"/>
    <path class="st5" d="M107.8,354c-1.4,3.3-1.2,6.9,0,9.9s2.8,3.5,5.2,3.7,5.5-.8,6.7-3.4h6.5c-2.2,6.7-6.9,9.2-13.9,8.9-5.6-.3-10.1-3.8-11.7-9.1s-1-6.4,0-9.5c1.7-5.9,6.9-9.4,13-9.4,8.7,0,13.5,7.1,13,15.7h-19.3c.3-2.8,2.5-4.6,5.1-4.7h6.8c-.3-1.7-.8-3.5-2.2-4.5-3-2.2-7.7-1.3-9.3,2.4Z"/>
    <path class="st5" d="M144.5,352.3c-1.9-1.6-5.2-1.4-6.9.3-1.3,1.3-1.8,3.2-1.8,5v15.3c-2.7.3-5.1.3-7.4,0v-26.7s7.1,0,7.1,0c0,1.2,0,2.4,0,3.7.6-.9,1.5-2.1,3.1-3,3.7-2.2,9.5-2.2,12.7,1.4,2,2.3,2.1,5.1,2.1,6.3v18.4c-2.4.3-4.6.3-7.2,0v-16.3c-.1-1.5-.4-3.3-1.7-4.3Z"/>
  </g>
  <g>
    <path class="st2" d="M236.8,373.2c-4.6,1.7-8.8-.7-9.6-1.1-5.5-3.3-6.6-10.6-5.9-15.4.3-1.7.9-6.1,4.8-9,.8-.6,4.6-3.3,9.3-2,2.9.8,4.7,2.8,5.4,3.6v-13.4c0,0,7.4,0,7.4,0v36.9s-7,0-7,0c0-1,0-2,0-2.9-.7.9-2.1,2.4-4.4,3.3ZM241,356.3c-.5-2.8-2.4-4.9-5-5.3s-5.3.7-6.4,3.3-1.3,7.3.3,10.5,3.5,3.4,5.9,3.2c5-.4,6.3-6.1,5.2-11.7Z"/>
    <path class="st2" d="M167,373.6c-1,0-4-.1-6.7-2.2-1.7-1.3-2.5-2.8-3-3.7-2.5-4.5-2.8-10.6-.3-15.9,2-4.3,6.1-6.7,10.8-6.4,2.9.2,5.2,1.3,7.2,3.6v-13.2c0,0,7.4,0,7.4,0v36.9s-7,0-7,0c0-.9,0-1.8,0-2.7-.6.7-1.7,1.7-3.4,2.5-.4.2-2.3,1.1-5,1ZM175.2,356.2c-.6-3-2.8-5.1-5.7-5.2s-5.4,1.7-6.2,4.7-.7,6.1.6,8.8,3.4,3.7,5.9,3.6c5.2-.3,6.5-6.2,5.4-11.9Z"/>
    <path class="st2" d="M256.7,373.5c-1.2-.3-3.1-.8-4.6-2.5-1.9-2.1-2-4.6-2-5.4,0-1.3.2-3.1,1.3-4.5,3.8-4.9,12.4-2.1,15.8-5.3,1.1-1.1.8-3.5-.5-4.3-2-1.3-4.5-1.1-6.6-.3-1.2.7-1.7,1.9-1.8,3.4h-7.4c0-3.5,2.2-6.7,5.8-8,7.4-2.7,18.2-.6,18.2,5.1l.2,16.8c0,.7,0,1.4.2,2.3.2.8.4,1.5.6,2.1-2.5,0-5,0-7.5,0,0-.3,0-.7-.2-1.1-.1-.5-.2-.9-.4-1.2-.7.6-1.8,1.4-3.2,2.1-1,.5-4.2,1.8-8.1.9ZM262.6,368.7c2.7,0,4.7-1.8,5.1-4.3s.3-2.6.1-4.3c-1.3.6-2.2.7-3.4.9l-4.3.7c-1.4.2-2.3,1.5-2.5,2.5s0,2.7,1,3.5,2.4.9,3.9.8Z"/>
    <path class="st2" d="M360.2,373.6h-.7c-4.7,0-9.2-2.3-11.5-6.6s-2.3-8.4-.9-12.5,7-8.9,12.8-9c8.8-.1,13.6,7.3,13.1,15.8h-19.3c.3-2.7,2.4-4.6,4.8-4.7h7c-.2-1.6-.7-3.5-2.1-4.6-3-2.2-7.6-1.2-9.2,2.3s-1.3,7.1,0,10.2,2.8,3.3,5.1,3.5,5.6-.9,6.9-3.5h6.4c-2,6.5-6.2,8.7-12.3,9Z"/>
    <path class="st2" d="M327.7,373h-7.3s0-16.7,0-16.7c0-1.3-.3-2.9-1.3-3.8s-3.5-1.3-5.3-.5-2.7,2.5-2.7,4.5v16.6c-.1,0-7.4,0-7.4,0v-26.7s7,0,7,0v3.3c2.3-3.1,5.6-4.5,9.3-4.2s5.5,1.6,6.7,4.4c2.5-3.6,6.1-4.8,10.1-4.3s7.7,3.5,7.7,8v19.3c-2.4.3-4.7.3-7.2,0v-17.5c0-2.4-1.6-3.9-3.9-4.1s-5.4,1.7-5.5,4.9v16.8Z"/>
    <polygon class="st2" points="222.4 372.9 213.5 372.9 206.3 361.2 203.4 363.8 203.4 372.9 196.1 372.9 196.1 336.1 203.3 336.1 203.3 355.8 212.5 346.3 221.2 346.3 211.2 356.1 222.4 372.9"/>
    <path class="st2" d="M383.8,352.7c-1.3,1.3-1.7,3.2-1.7,4.9v15.3c-2.6.3-4.8.3-7.4,0v-26.7s7.1,0,7.1,0c0,1.2-.3,2.1.2,3.5,2.2-3.5,5.8-4.5,9.7-4.2s7.9,3,7.9,7.7l.2,19.9-7.3-.2v-16.2c0-1.5-.4-3.3-1.6-4.3-1.9-1.6-5.2-1.5-7.1.3Z"/>
    <path class="st2" d="M300.7,368.8c-3.6,5.8-15.5,5.9-20.3,1.9s-3.3-4-3.2-6.8h6.8c0,1.5.5,3.2,2.1,3.9s5.1,1.2,7.2-.2,1.3-1.8,1.2-2.8-.9-1.8-1.9-2.1l-7.8-2.1c-2.1-.6-4.3-1.3-5.7-3s-1.6-4.5-.8-7c1.9-5.4,10.7-6.2,16.4-4.6s6.1,3.9,6.4,7.8h-6.9c-.3-1.4-.8-2.8-2.3-3.2-3.1-1-6.6-.5-6.8,1.8-.3,4.8,14.6,2.3,16.5,9.7s.2,4.7-1,6.6Z"/>
    <rect class="st2" x="185.5" y="345.5" width="7.5" height="27.6"/>
    <circle class="st2" cx="189.3" cy="339.1" r="4.6"/>
  </g>
  <g>
    <path class="st4" d="M200.1,40.5c64.6,18,94.8,40.5,129.3,94,2.8,67-9.2,102.6-49.4,152-62.9,23.4-100.5,23-159.8,0-41.7-52.6-52.9-88.4-49.4-152,37.1-55.9,67.7-77.7,129.3-94h0Z"/>
    <polygon points="111.5 223.4 110.8 219.6 108.3 216.5 105.7 211.7 104.9 208.3 104.9 208.3 105.2 205.1 101.8 198.8 100.3 194.5 99.2 188.4 96 183.2 95.7 175.5 95.7 175.5 97.7 170.9 101.4 160 107.1 151.5 109.9 147.3 110 147.3 107.1 151.5 101.5 160 97.7 170.9 95.7 175.5 96.1 183.2 99.2 188.4 100.4 194.5 101.8 198.8 105.3 205.1 105.3 205.1 105 208.3 105.7 211.7 108.4 216.5 110.9 219.6 111.6 223.3 111.5 223.4"/>
    <path d="M200.1,273.3c3.9-.3,7-1.6,10.7-2.9,5.5-2.1,10.2-4.3,20-1.9,2.7.7,5.8,1.9,8.9,3.2,6.4,2.7,13.7,5.3,21.9,4.6l.7-2.9c-3.5-2.8-4.8-6.7-5.9-11.6-.3-1.3-.6-2.6-.9-3.9l-.3-1h-1c-6-.6-10.3-2.1-15.7-4-2.3-.8-4.8-1.7-7.7-2.6-7.9-2.4-15.1-.6-21.8,1.1-3.6.9-5.5,1.7-8.6,1.9h-.4c-3.2,0-5.1-.9-8.6-1.9-6.7-1.7-13.9-3.5-21.8-1.1-2.9.9-5.4,1.8-7.7,2.6-5.4,1.9-9.7,3.4-15.7,3.9h-1c0,0-.3,1.1-.3,1.1-.4,1.4-.6,2.6-.9,3.9-1.1,4.9-2.2,9.1-5.7,11.9l.6,2.2c8.2.7,15.1-1.5,21.4-4.3,3-1.3,6-2.5,8.7-3.2,9.8-2.5,15,0,20.5,2.1,3.6,1.4,6.8,2.7,10.7,2.9h-.1ZM200.1,251.5c-5.4-1.4-10.8-4-15.6-7.5-1-.7-2-1.5-2.9-2.3-.4-.3-.7-.7-1.1-1-6.2,2.5-15.1,5.4-24.2,7-7.6,1.4-15.4,1.8-21.9.5-6.8-1.4-12.2-4.7-14.7-10.9-.4-1.1-.8-2.2-1-3.5-5.2-3.5-7.8-7.7-8.6-11-.2-.7-.3-1.4-.3-2,0-.4,0-.7,0-1.1-3.6-3.6-5.7-7.2-6.1-10.7,0-.7,0-1.4,0-2.2,0-.4.1-.8.3-1.2h0c-1.8-2.1-3.2-4.3-4.2-6.8-1-2.6-1.5-5.6-1.4-9.2-6.4-5.9-5.6-15.1-1.7-22.8,4.6-9.1,10.7-17.8,13.4-25.4,1.5-4.3,2.7-1.6,2.7-.3,0,6.4-1,13.2-2.3,19.3-.1.7-.3,1.3-.7,3.4-.7,3.1-.7,6.1.2,8.2.4.9.9,1.6,1.5,2.2.7.6,1.5,1,2.6,1.2,2.5.5,6,0,10.7-2,11.5-4.9,22.7-9.1,30.6-9.7,8.9-.6,14.1,2.9,12.3,14.3-.2,1.5-.5,3.1-.7,4.6-.7,3.8-1,5.9-.7,7.9.2,1.5.6,3.3,1.7,5,.9,1.5,2.3,3,4.4,4.5,0-.3.2-.6.3-.9-.6-6.4,0-12.8,2.7-18.9.5-1.1,1-2.1,1.7-3.2l-12.4-60.5c-.8-4.2-1.8-6.8-3.5-8-2.2-1.6-5.8-1.2-8.3-.7-2.1.4-2.1-.9-.6-1.8,2.3-1.3,5.1-3.2,7.7-4.9,4.6-3,9.2-5.7,14.3-1.9.7-4.3,4.1-6.6,7.3-8.9.9-.7,3.3-2,4.5-3.8,1.2-1.7,2.5-2.3,2.8-.3,0,.5.2,1.6.4,2.7,2.3-2.5,5.8-4,8.1-6.4,1.3-1.4,1.4-2.7,2.6-2.8,1.2,0,1.3,1.4,2.6,2.8,2.3,2.4,5.8,3.9,8.1,6.4.2-1.1.4-2.2.4-2.7.2-2,1.6-1.4,2.8.3,1.3,1.8,3.6,3.1,4.5,3.8,3.2,2.2,6.6,4.5,7.3,8.9,5.1-3.9,9.7-1.2,14.3,1.9,2.5,1.7,5.4,3.6,7.7,4.9,1.5.8,1.5,2.1-.7,1.8-2.5-.4-6.1-.9-8.3.7-1.6,1.3-2.6,3.8-3.5,8l-12.4,60.5c.6,1,1.2,2.1,1.6,3.2,2.7,6,3.4,12.5,2.7,18.9.1.3.2.6.3.9,2.1-1.5,3.6-3,4.4-4.5,1.1-1.8,1.5-3.5,1.7-5,.2-2.1,0-4.2-.7-7.9-.2-1.4-.5-3-.7-4.6-1.7-11.3,3.5-14.9,12.3-14.3,8,.5,19.1,4.8,30.7,9.7,4.7,2,8.2,2.5,10.7,2,1.1-.2,1.9-.6,2.6-1.2.7-.6,1.2-1.3,1.5-2.2.9-2.1.9-5.1.3-8.2-.4-2.1-.6-2.8-.7-3.4-1.3-6.1-2.3-12.9-2.3-19.3s1.2-4,2.7.3c2.7,7.7,8.8,16.3,13.4,25.4,3.9,7.8,4.7,17-1.7,22.8.1,3.6-.3,6.5-1.4,9.2-.9,2.5-2.4,4.7-4.2,6.8.1.4.2.8.3,1.2.1.7.1,1.5,0,2.2-.3,3.5-2.5,7.1-6.1,10.7v1.1c0,.6-.1,1.3-.3,2-.8,3.4-3.4,7.6-8.6,11-.2,1.2-.6,2.4-1,3.5-2.5,6.3-7.9,9.5-14.7,10.9-6.5,1.4-14.3.8-21.9-.5-9.1-1.6-18-4.5-24.2-7-.4.3-.7.7-1.1,1-1,.8-1.9,1.6-2.9,2.3-4.8,3.5-10.2,6.1-15.6,7.5h0Z"/>
    <g>
      <g>
        <path class="st0" d="M196.8,155.5c1.2,1.5,2.4,3,3.3,4.9.9-1.9,2.1-3.4,3.3-4.9,1.8-2.3,3.6-4.5,3.7-7.9,0-3.5-2-6.3-4-9.1-1.1-1.5-2.1-3-3-4.7-.8,1.6-1.9,3.2-3,4.7-2,2.9-4.1,5.7-4,9.1,0,3.4,1.8,5.6,3.7,7.9h0Z"/>
        <path class="st0" d="M120.2,231.3c2.9,1.2,5.5,1.9,8.1,2.1,2.4.3,4.8.2,7.4.1,1.8,0,2,2.9,0,2.9-2.7.1-5.1.1-7.7-.1-1.9-.2-3.8-.6-5.8-1.2,0,.4.2.7.4,1,2.1,5.2,6.8,8,12.6,9.2,6.1,1.3,13.5.8,20.8-.5,7.6-1.4,15.1-3.6,20.9-5.7-8.6-1.6-15.3-4.5-20-9.1-5.2-5.1-7.7-12.1-7.2-21.2.3-6,2.1-12.1,3.8-17.8,1.2-4,2.3-7.8,2.8-11,.9-6.1-.7-10.6-8.9-11.8-6.3,1.7-13.6,4.6-21.2,7.8-5.3,2.2-9.4,2.8-12.4,2.2-1.6-.3-2.9-.9-3.9-1.8-1-.9-1.8-2-2.4-3.3-1.1-2.7-1.2-6.3-.4-10,0-.2.4-1.8.7-3.4.7-3.5,1.4-6.6,1.9-10-1.4,2.7-2.9,5.3-4.4,8-4.8,8.4-9.6,16.7-7.9,23.8,2.1,8.9,12.5,10.9,20.1,12,3.3.5,2.9,3.4-.7,2.8-4.2-.7-9.1-1.7-12.9-3.4-.8-.4-1.5-.7-2.3-1.2,0,2.2.5,4.2,1.2,5.9,3.3,8.5,9.7,9.4,17.8,10.2,3.8.4,3.6,3.3-.2,2.9-4.1-.4-8.6-1.1-12-2.5-.6-.2-1.1-.5-1.6-.8-.8,4.5,2.8,8.8,7.1,10.9,4.4,2.1,9.7,2.1,13.1,1.8,2.6-.2,2.6,2.9,0,2.9s-5.8,0-8.7-.4c-2-.3-3.8-.7-5.5-1.4,0,.2,0,.4.1.7.7,2.8,2.9,6.2,7.2,9.2h.1Z"/>
        <path class="st0" d="M191.1,167c-6.4,4.3-10.4,9.1-12.8,14.3-1.8,4-2.6,8.2-2.7,12.5,1.6-2.5,3.6-4.7,5.6-7,4.4-5,8.9-10.1,9.7-17.9,0-.6,0-1.2.1-1.9h0Z"/>
        <path class="st0" d="M144.8,256.1"/>
        <path class="st0" d="M198.4,262.9v-8.7c-3-.3-4.6-1.1-7.8-1.9-6.3-1.6-13.1-3.3-20.2-1.1-2.9.9-5.3,1.7-7.6,2.6-5.3,1.9-9.6,3.4-15.4,4-.2.9-.4,1.8-.6,2.8-.5,2-.9,4.1-1.5,6.1,4.8,0,9.2-2.1,13.5-4.1,2.8-1.3,5.5-2.5,8.2-3.3,11.1-2.9,18.5-.5,25.5,1.8,2.5.8,3.6,1.4,5.9,1.9h0Z"/>
        <path class="st0" d="M280.1,231.3c-2.9,1.2-5.5,1.9-8.1,2.1-2.4.3-4.8.2-7.4.1-1.8,0-2,2.9,0,2.9,2.7.1,5.1.1,7.7-.1,1.9-.2,3.8-.6,5.8-1.2,0,.4-.2.7-.4,1-2.1,5.2-6.8,8-12.6,9.2-6.1,1.3-13.5.8-20.8-.5-7.6-1.4-15.1-3.6-20.9-5.7,8.6-1.6,15.3-4.5,20-9.1,5.2-5.1,7.7-12.1,7.2-21.2-.3-6-2.1-12.1-3.8-17.8-1.2-4-2.3-7.8-2.8-11-.8-6.1.7-10.6,8.9-11.8,6.3,1.7,13.6,4.6,21.2,7.8,5.3,2.2,9.4,2.8,12.4,2.2,1.6-.3,2.9-.9,3.9-1.8,1-.9,1.8-2,2.4-3.3,1.1-2.7,1.2-6.3.4-10,0-.2-.4-1.8-.7-3.4-.7-3.5-1.4-6.6-1.9-10,1.4,2.7,2.9,5.3,4.4,8,4.8,8.4,9.6,16.7,7.9,23.8-2.1,8.9-12.5,10.9-20.1,12-3.3.5-2.9,3.4.7,2.8,4.2-.7,9.1-1.7,12.9-3.4.8-.4,1.5-.7,2.2-1.2,0,2.2-.5,4.2-1.2,5.9-3.3,8.5-9.7,9.4-17.8,10.2-3.8.4-3.6,3.3.2,2.9,4.1-.4,8.6-1.1,12-2.5.6-.2,1.1-.5,1.6-.8.8,4.5-2.8,8.8-7.1,10.9-4.4,2.1-9.7,2.1-13.1,1.8-2.6-.2-2.6,2.9,0,2.9s5.8,0,8.7-.4c2-.3,3.8-.7,5.5-1.4,0,.2,0,.4-.1.7-.7,2.8-2.9,6.2-7.2,9.2h0Z"/>
        <path class="st0" d="M209.1,167c6.4,4.3,10.4,9.1,12.8,14.3,1.8,4,2.6,8.2,2.7,12.5-1.6-2.5-3.6-4.7-5.6-7-4.4-5-8.9-10.1-9.7-17.9,0-.6,0-1.2-.1-1.9h0Z"/>
        <path class="st0" d="M255.4,256.1c0,0,0,0,0,0Z"/>
        <path class="st0" d="M201.7,262.9v-8.7c3-.3,4.6-1.1,7.8-1.9,6.3-1.6,13.1-3.3,20.2-1.1,2.9.9,5.3,1.7,7.6,2.6,5.3,1.9,9.6,3.4,15.4,4,.2.9.4,1.8.6,2.8.4,2,.9,4.1,1.5,6.1-4.8,0-9.2-2.1-13.5-4.1-2.8-1.3-5.5-2.5-8.3-3.3-11.1-2.9-18.5-.5-25.5,1.8-2.5.8-3.6,1.4-5.9,1.9h0Z"/>
        <path class="st0" d="M200.1,266.2c3.1-.2,5-1.2,8.5-2.3,6.6-2.1,13.6-4.5,23.9-1.8,2.5.7,5.1,1.9,7.8,3.1,1.6.7,3.4,1.5,5.1,2.2,3.3,1.3,6.8,2.3,10.7,2.1.5,1.1,1,2.1,1.7,3-6.2-.3-11.8-2.7-16.9-4.9-3.1-1.4-6.1-2.6-9.1-3.4-10.7-2.7-16.1-.7-22.1,1.6-3.9,1.4-6.2,2.3-9.6,2.7-3.4-.3-5.8-1.2-9.6-2.7-6-2.2-11.4-4.3-22.1-1.6-2.9.7-5.9,2-9,3.4-5.1,2.2-10.7,4.6-16.9,4.9.7-.9,1.2-1.9,1.7-3,3.9.1,7.4-.8,10.7-2.1,1.7-.7,3.4-1.4,5-2.2,2.6-1.2,5.2-2.4,7.8-3.1,10.2-2.7,17.3-.4,23.8,1.8,3.5,1.2,5.5,2.1,8.6,2.3h0Z"/>
      </g>
      <g>
        <path class="st0" d="M200.1,271.5c3.9-.3,7-1.6,10.7-2.9,5.5-2.1,10.5-3.9,20.3-1.5,2.7.7,5.6,1.9,8.6,3.2,6.4,2.7,13.4,5.7,21.5,5.1l.8-2.6c-3.5-2.8-4.6-7.9-5.7-12.8-.3-1.3-.6-2.6-.9-3.9l-.3-1h-1c-6-.6-10.1-2.4-15.5-4.3-2.3-.8-4.1-2-7-2.9-7.9-2.5-16,0-22.7,1.6-3.6.9-6.4,3.3-9.6,3.4h-.4c-3.1,0-4.1-2.4-7.6-3.4-6.7-1.7-13.9-3.5-21.8-1.1-2.9.9-6.1,2.8-8.4,3.6-5.3,1.9-9.5,3.1-15,2.9h-1c0,0-.3,1.1-.3,1.1-.4,1.4-.6,2.6-.9,3.9-1.1,4.9-2.2,10.1-5.7,12.8l.8,2.6c8.2.7,15.2-2.3,21.5-5.1,3-1.3,5.9-2.5,8.6-3.2,9.8-2.5,14.8-.6,20.3,1.5,3.6,1.4,6.8,2.7,10.7,2.9h-.2Z"/>
        <path d="M141.5,276.4c-.8,0-1.6,0-2.4-.1h-.6c0,0-1.2-3.9-1.2-3.9l.5-.4c3.2-2.6,4.4-7.8,5.4-12.3.1-.6.3-1.1.4-1.7.2-.7.3-1.5.5-2.2l.4-1.6,1.7-.2h0c5.1.2,9.1-.8,14.6-2.8,1-.3,2.1-.9,3.3-1.5,1.6-.8,3.4-1.6,5.1-2.1,8.1-2.5,15.6-.6,22.3,1.1,1.8.5,2.9,1.3,3.9,1.9,1.1.8,2,1.4,3.4,1.4h.4c1.6,0,3.2-.8,4.9-1.6,1.4-.7,2.8-1.3,4.4-1.7.4-.1.9-.2,1.3-.3,6.3-1.6,14.2-3.6,21.8-1.2,1.7.5,3,1.1,4.3,1.7.9.4,1.8.8,2.7,1.2.9.3,1.7.6,2.5.9,4.2,1.5,7.8,2.8,12.7,3.2l1.7.2.4,1.6c.4,1.4.7,2.8.9,3.9h0c1,4.8,2.1,9.8,5.4,12.3l.5.4-1.2,3.8h-.6c-8.3.7-15.5-2.3-21.8-5h-.2c-2.8-1.3-5.7-2.6-8.5-3.3-9.7-2.4-14.6-.5-19.8,1.5-.4.1-.8.3-1.2.4-3.1,1.2-6,2.3-9.6,2.5h0s-.2,0-.2,0c-3.6-.3-6.6-1.4-9.8-2.6l-1.1-.4c-5.5-2.1-10.2-3.9-19.8-1.5-2.6.7-5.4,1.8-8.5,3.2-5.4,2.4-12.1,5.3-19.5,5.3ZM139.8,274.5c7.8.5,14.5-2.5,20.5-5.1,3.2-1.4,6-2.6,8.7-3.3,10.1-2.6,15.3-.6,20.9,1.5l1.1.4c3.2,1.2,5.9,2.2,9.2,2.5,3.3-.3,6-1.3,9.1-2.4.4-.1.8-.3,1.2-.4,5.5-2.1,10.6-4.1,20.9-1.5,2.9.7,5.9,2,8.7,3.3h.2c5.9,2.6,12.7,5.5,20.3,5.1l.4-1.4c-3.4-3-4.5-8-5.5-12.9h0c-.2-1.2-.5-2.5-.9-3.9v-.4c-.1,0-.5,0-.5,0-5.2-.4-8.9-1.8-13.2-3.3-.8-.3-1.6-.6-2.5-.9-1-.4-1.9-.8-2.9-1.2-1.2-.6-2.5-1.1-4.1-1.6-7.1-2.2-14.4-.4-20.8,1.3-.5.1-.9.2-1.4.3-1.4.4-2.8,1-4.1,1.6-1.9.9-3.7,1.7-5.7,1.8h-.4c-2,0-3.2-.9-4.4-1.7-.9-.6-1.9-1.3-3.4-1.7-6.7-1.7-13.7-3.4-21.3-1.1-1.6.5-3.2,1.3-4.8,2-1.3.6-2.5,1.2-3.5,1.5-5.8,2.1-9.9,3.2-15.3,2.9h-.3s-.1.4-.1.4c-.2.7-.4,1.5-.5,2.2-.1.6-.3,1.1-.4,1.7-1,4.6-2.2,9.9-5.5,12.9l.4,1.4Z"/>
      </g>
      <g>
        <path class="st0" d="M200.1,226.9c-.7,0-.9,1.2-1.3,2.3-.3,1-.7,1.9-1.3,2.9-.3.5-.6,1-.8,1.5-2.2,5,.2,8.4,3.3,11.6,3.3-3.4,5.6-6.6,3.3-11.6-.2-.5-.5-1-.7-1.5-.5-.9-.9-1.9-1.3-2.9-.4-1.1-.5-2.3-1.3-2.3h0Z"/>
        <path class="st0" d="M206,157.9c0,0-.2.2-.3.4-1.6,2-3.2,4.1-3.9,7.1-.7,3.3-2.6,3.6-3.3.1-.6-2.7-2-4.6-3.4-6.5h0c-.3-.3-.6-.7-.8-1,0,3.6,0,8.1-.3,11.3-.9,8.7-5.7,14.3-10.4,19.6-3.7,4.2-7.3,8.3-8.6,13.8l-.5,2-1.7-1c-3.6-2.1-5.7-4.3-7.1-6.5-1.4-2.2-1.9-4.3-2.1-6.2-.3-2.4,0-4.7.7-8.8.2-1.2.4-2.5.7-4.5,1.3-8.6-2.6-11.3-9.3-10.9-.8,0-1.6.1-2.5.3,5.6,2.6,6.6,7.4,5.7,13.5-.5,3.5-1.6,7.4-2.9,11.5-1.6,5.5-3.4,11.4-3.7,17.1-.5,8.3,1.7,14.5,6.3,19,4.7,4.6,11.9,7.4,21.4,8.7l.8.4c.8.8,1.6,1.6,2.5,2.4.9.7,1.8,1.5,2.7,2.2,3.1,2.3,9.6,7.1,13.4,7.1,4,0,14.3-7.1,14.3-7.1,0,0,1.9-1.4,2.7-2.2.9-.7,1.7-1.5,2.5-2.4l.8-.4c9.5-1.4,16.7-4.2,21.4-8.7,4.6-4.5,6.8-10.7,6.3-19-.3-5.7-2.1-11.6-3.7-17.1-1.2-4.1-2.3-8-2.9-11.5-.9-6.1.1-11,5.7-13.5-.8-.1-1.7-.2-2.5-.3-6.7-.5-10.6,2.3-9.3,10.9.3,2,.5,3.3.7,4.5.7,4.1,1.1,6.4.7,8.8-.2,1.9-.7,4-2.1,6.2-1.4,2.2-3.5,4.4-7.1,6.5l-1.7,1-.5-2c-1.3-5.5-4.9-9.6-8.6-13.8-4.7-5.3-9.5-10.8-10.4-19.6-.3-3.1-.4-7.7-.3-11.3h.1Z"/>
        <path class="st0" d="M191.3,153.8c-.6-1.4-1-2.9-1.1-4.8,0-4.4,2.2-7.7,4.5-10.9,2.1-2.9,3.8-4.8,4.4-9,.3-2.1,1.5-1.8,1.8,0,.7,3.9,2.4,5.9,4.6,8.9,2.3,3.2,4.6,6.4,4.5,10.9,0,1.9-.5,3.5-1.1,4.8,0,3.1,0,7.1,0,10,5,3,8.8,6.4,11.6,10.1v-.3s11.9-57.4,11.9-57.4c1-4.9,2.2-8,4.6-9.8.9-.7,2-1.1,3.2-1.4-.3-.2-.7-.5-1-.7-3.7-2.5-7.5-5-11.4-2.5-1.4.9-2.1,1.6-2.4,3.3l-5.8,32.1c-.5,2.4-3.5,2-2.9-.8l5.6-31.1c.4-2,.9-4.1.4-6-.8-2.9-3.6-4.7-6-6.4-1.1-.8-2.2-1.5-3.1-2.3,0,.7-.2,1.4-.3,2.1l-3.6,37c-.3,2.3-3.2,2-2.9-.7l3.1-31.4c.3-3.2.5-4.7-1.9-7-1-.9-2.2-1.9-3.3-2.8-1.2-.9-2.3-1.6-3.3-2.6-.5-.5-.9-1-1.2-1.5-.3.5-.7,1-1.3,1.5-.9.9-2.1,1.7-3.3,2.6-1.1.9-2.3,1.8-3.3,2.8-2.4,2.2-2.2,3.8-1.9,7l3.1,31.4c.3,2.7-2.6,2.9-2.9.7l-3.6-37c0-.6-.2-1.3-.3-2.1-.9.8-2,1.5-3.1,2.3-2.4,1.7-5.1,3.6-6,6.4-.6,2,0,4.1.3,6l5.6,31.1c.6,2.8-2.3,3.2-2.9.8l-5.8-32.1c-.3-1.6-1-2.3-2.4-3.3-3.9-2.5-7.7,0-11.4,2.5-.3.2-.7.5-1,.7,1.2.2,2.3.7,3.2,1.4,2.3,1.7,3.6,4.9,4.6,9.8l11.8,57.4v.3c2.9-3.6,6.6-7.1,11.6-10.1,0-2.9,0-7,0-10h.1Z"/>
      </g>
    </g>
    <g>
      <path d="M258.5,267.8c.2.5.4,1,.7,1.5-5.9,1.4-12.6-1.2-18.7-4-4.6-2.1-9.2-4.1-13.5-4.3-5-.2-9.6.2-14.1,1.3-4.5,1.1-8.9,2.8-13.5,5.1t0,0h-.2s0,0,0,0c0,0,0,0,0,0-4.5-2.3-9-4-13.5-5.1-4.5-1.1-9.2-1.5-14.1-1.3-4.4.2-8.6,2.3-12.6,4.3-5.4,2.7-11.2,5-17.1,3.6l.7-1.5c5.3,1.2,10.6-1.1,15.7-3.6,4.3-2.1,8.6-4.3,13.3-4.5,5.1-.2,9.9.2,14.6,1.4,4.5,1.1,9,2.8,13.5,5,4.5-2.3,9-4,13.5-5,4.7-1.1,9.4-1.6,14.6-1.4,4.6.2,9.3,2.3,14.1,4.5,5.8,2.6,11.9,5.2,17.3,4h-.5Z"/>
      <path d="M255,254.5c.2.5.4,1,.7,1.5-5.9,1-9.1-1.5-15.2-4.1-4.6-2.1-9.2-4.1-13.5-4.3-5-.2-9.6.2-14.1,1.3s-8.9,2.8-13.5,5.1t0,0h0c0,0-.2,0-.2,0,0,0,0,0,0,0,0,0,0,0,0,0-4.5-2.3-9-4-13.5-5.1-16.9-4.1-28.6,9.8-40.3,7.1l.7-1.5c10.8,2.5,23.3-11.3,40-7.2,4.5,1.1,9,2.8,13.5,5,4.5-2.2,9-4,13.5-5,4.7-1.1,9.4-1.6,14.6-1.4,4.6.2,9.3,2.3,14.1,4.5,5.8,2.4,8.4,4.7,13.8,4.1h-.3Z"/>
      <path d="M198,253.3h1.6v12.7h-1.6v-12.7Z"/>
      <g>
        <path d="M113.5,130c-5.2-2.5-7.8-3.7-12.9-6.2-1,2.1-1.4,3.1-2.3,5.3-1.1-.5-1.6-.7-2.7-1.1,2.4-5.9,3.8-8.7,6.9-14,1,.6,1.5.9,2.5,1.4-1.1,1.9-1.6,2.9-2.7,4.9,5.1,2.6,7.6,4,12.7,6.6-.6,1.2-.9,1.8-1.5,3h0Z"/>
        <path d="M103.7,112c.8-1.3,1.2-2,2-3.2,3.1,2.1,4.7,3.1,7.8,5.1,1.2.8,2.1,1.3,2.5,1.5.7.3,1.3.3,2,0,.7-.2,1.2-.7,1.8-1.4.5-.7.8-1.4.7-2.1s-.3-1.2-.7-1.6-1.2-1.1-2.2-1.9c-3-2.3-4.6-3.5-7.6-5.7.9-1.2,1.4-1.8,2.2-2.9,2.8,2.3,4.3,3.4,7.1,5.7,1.6,1.3,2.7,2.3,3.3,3,.6.7.9,1.4,1.1,2.1.2.7.2,1.5,0,2.3-.2.8-.7,1.7-1.4,2.8-.9,1.2-1.6,2.1-2.4,2.6-.7.5-1.5.7-2.2.8-.7,0-1.4,0-2.1-.2-.9-.3-2.2-1-3.9-2-3.1-1.9-4.7-2.9-7.8-4.8h0Z"/>
        <path d="M130,105.4c-4.2-3.9-6.3-5.9-10.5-9.8-1.4,1.5-2.1,2.3-3.5,3.9-.9-.7-1.4-1.1-2.2-1.9,3.7-4.4,5.7-6.5,9.9-10.4.8.8,1.2,1.3,2,2.1-1.5,1.4-2.2,2.1-3.7,3.6,4.1,4.1,6.1,6.1,10.2,10.1-.8.9-1.3,1.3-2.1,2.2h0Z"/>
        <path d="M142.9,93.7c-5.3-4.7-8-7-13.6-11.3,1.1-.9,1.7-1.4,2.9-2.2,3.7,3.2,5.5,4.8,9.1,8.1-1.8-4.5-2.7-6.8-4.3-11.4,1.4-.9,2.1-1.4,3.5-2.2,3.6,3.5,5.3,5.2,8.7,8.8-1.6-4.6-2.4-7-3.8-11.7,1.2-.7,1.9-1,3.1-1.6,1.7,6.9,2.7,10.3,4.9,17-1.1.6-1.6.9-2.7,1.6-3.7-3.8-5.6-5.7-9.5-9.3,1.7,5,2.6,7.5,4.6,12.5-1.1.7-1.6,1.1-2.6,1.9h0Z"/>
        <path d="M149.9,69.3c1.3-.6,1.9-.9,3.1-1.5,1.6,3.4,2.4,5.1,3.9,8.5.6,1.4,1.1,2.2,1.3,2.6.4.6.9,1,1.5,1.2s1.3.1,2.1-.2c.8-.3,1.3-.7,1.5-1.3.2-.5.3-1.1.2-1.7-.1-.6-.5-1.5-.9-2.8-1.4-3.6-2.1-5.3-3.5-8.9,1.3-.5,1.9-.7,3.2-1.2,1.2,3.4,1.8,5.1,3.1,8.6.7,2,1.1,3.4,1.3,4.2s0,1.6,0,2.3-.6,1.4-1.1,1.9-1.4,1.1-2.4,1.5c-1.3.5-2.3.8-3.1.7-.8,0-1.5-.2-2.2-.6-.7-.4-1.2-.8-1.6-1.4-.6-.8-1.4-2.1-2.2-3.8-1.6-3.3-2.5-5-4.1-8.2h0Z"/>
        <path d="M171.3,79.3c-2.1-6.6-3.2-9.9-5.3-16.4,2.8-.9,4.2-1.3,7-2,1.8-.4,3.1-.6,4-.4s1.6.6,2.2,1.2c.7.7,1,1.5,1.3,2.5.2,1.3,0,2.4-.4,3.4-.5,1-2.7,2.2-2.7,2.2,0,0,1.4.7,2,1.1s1.3,1.2,2.3,2.4,1.4,1.8,2.4,3c-1.4.2-2.1.4-3.4.7-1.2-1.3-1.7-1.9-2.9-3.2-1.1-1.1-1.8-1.8-2.2-2.1-.4-.3-.7-.4-1.1-.5-.4,0-.9,0-1.6.2-.2,0-.4,0-.6.2.8,2.8,1.2,4.2,2,6.9-1.1.3-1.7.5-2.8.8h0ZM171.4,68.8c.9-.3,1.4-.4,2.3-.6,1.5-.4,2.4-.7,2.8-.9.3-.2.6-.5.7-.9.1-.4.1-.8,0-1.4-.1-.6-.4-1-.7-1.3-.4-.3-.8-.4-1.4-.4-.3,0-1.1.2-2.4.5-1,.3-1.5.4-2.5.7.5,1.7.7,2.5,1.2,4.2h0Z"/>
        <path d="M185.4,75.9c-1.1-6.8-1.7-10.2-2.8-17,1.4-.2,2.1-.3,3.4-.5.9,6.8,1.4,10.2,2.3,17.1-1.2.1-1.7.2-2.9.4h0Z"/>
        <path d="M196.6,74.8c-.3-6.9-.5-10.3-.8-17.2,1.4,0,2.1,0,3.4,0,0,2.7,0,4.1.1,6.8,2.5,0,3.8,0,6.3,0,0-2.7.2-4.1.3-6.8,1.4,0,2.1,0,3.4.2-.5,6.9-.7,10.3-1.2,17.2-1.2,0-1.7,0-2.9-.1.1-3,.2-4.5.3-7.5-2.5,0-3.7,0-6.2,0,0,3,0,4.5.1,7.5-1.2,0-1.7,0-2.9,0h0Z"/>
        <path d="M224,77.3c-1.2-.3-1.9-.4-3.1-.7-.2-1.6-.3-2.4-.5-4.1-2.4-.4-3.6-.6-5.9-.9-.7,1.5-1,2.2-1.7,3.7-1.2-.1-1.8-.2-3.1-.3,2.9-6.7,4.5-10,8.1-16.4,1.4.2,2.1.3,3.6.6,1.5,7.2,2,10.9,2.7,18.1h0ZM220,69.5c-.4-2.7-.6-4-1.1-6.7-1.3,2.4-1.9,3.6-3.1,6,1.7.2,2.5.4,4.2.7h0Z"/>
        <path d="M225.6,77.7c1.7-6.7,2.6-10,4.3-16.7,1.3.3,2,.5,3.2.8,1.4,5.2,2,7.8,2.8,12.9,1.5-4.3,2.3-6.5,3.9-10.8,1.2.4,1.8.7,3,1.1-2.5,6.4-3.7,9.7-6.3,16.1-1.1-.4-1.6-.6-2.8-1-.7-5-1.2-7.5-2.5-12.6-1.2,4.3-1.9,6.5-3.1,10.8-1-.3-1.6-.4-2.6-.7h0Z"/>
        <path d="M246.1,66.3c2.3,1,3.5,1.5,5.8,2.6,1.3.6,2.2,1.2,2.8,1.8.7.7,1.3,1.6,1.5,2.6.2,1,.3,2.1,0,3.2-.2,1.1-.7,2.4-1.6,3.8-.7,1.2-1.5,2.2-2.2,2.9-1,.9-2,1.5-2.9,1.9-.7.3-1.6.3-2.5.2-.7,0-1.5-.4-2.5-.8-2-1-3-1.4-5-2.3l6.8-15.9h0ZM248.1,70.3c-1.9,4.2-2.9,6.2-4.8,10.4.8.4,1.2.6,2.1.9.7.4,1.4.6,1.7.7.5,0,1,0,1.4,0,.5-.1.9-.5,1.5-1.1s1.2-1.4,1.8-2.6c.7-1.2,1-2.1,1.2-2.9.1-.7.1-1.4,0-1.9s-.5-1-1-1.4c-.4-.3-1.2-.8-2.4-1.4-.6-.3-.8-.4-1.4-.7h0Z"/>
        <path d="M263.4,96.7c-1-.8-1.5-1.3-2.6-2.1.6-1.5.8-2.3,1.3-3.9-2-1.5-3-2.2-5-3.6-1.3,1-1.9,1.5-3.2,2.6-1.1-.7-1.6-1-2.7-1.6,5.5-4.8,8.5-7,14.6-11.2,1.2.8,1.8,1.3,3,2.1-1.8,7.2-2.9,10.8-5.5,17.6h0ZM263,87.8c.8-2.6,1.2-3.9,1.9-6.5-2.2,1.6-3.3,2.4-5.5,4.1,1.4,1,2.1,1.4,3.6,2.5h0Z"/>
        <path d="M266.1,99.1c2-2.1,2.9-3.3,4.9-5.4.9-4.6,1.3-6.9,1.7-11.6,1.3,1,2,1.6,3.2,2.7-.5,3.2-.8,4.7-1.5,7.8,3-1,4.5-1.4,7.6-2.2,1.2,1.2,1.8,1.8,2.9,3-4.7.8-7,1.3-11.5,2.6-2,2.1-3,3.2-5,5.3-.9-.8-1.3-1.3-2.2-2.1h0Z"/>
        <path d="M280.7,115.7c-.8-1.2-1.2-1.7-2-2.8.9-1.4,1.4-2.1,2.3-3.5-1.6-2.1-2.4-3.1-4.1-5-1.5.7-2.3,1-3.8,1.7-.9-1-1.3-1.4-2.2-2.4,6.6-3.1,10-4.5,17.1-6.9,1,1.2,1.5,1.8,2.5,3-3.6,6.6-5.5,9.9-9.7,15.9h0ZM282.6,106.8c1.4-2.3,2.1-3.5,3.5-5.9-2.6.9-3.8,1.4-6.4,2.4,1.2,1.4,1.7,2.1,2.9,3.5h0Z"/>
        <path d="M281.7,117.2c5.7-3.9,8.6-5.8,14.3-9.7.8,1.2,1.2,1.9,2,3.1-2.2,5.1-3.5,7.6-6.2,12.3,4.1-2.2,6.1-3.3,10.1-5.5.7,1.3,1,1.9,1.7,3.3l-15.4,7.7c-.6-1.2-.9-1.8-1.5-3,2.7-4.5,4-6.8,6.2-11.7-3.8,2.4-5.7,3.6-9.5,6-.7-1-.9-1.5-1.6-2.5h0Z"/>
        <path d="M289.7,131.5c6.3-2.9,9.4-4.3,15.7-7.1.7,1.4,1,2.2,1.6,3.7-6.4,2.6-9.5,4-15.9,6.6-.5-1.3-.8-1.9-1.4-3.1h0Z"/>
        <path d="M196.3,225.4c1.4-1.3,6.2-1.2,7.7,0,1.6,1.3,1.2,8,1.2,8,0,0,2.8,3.6,2.7,5-.1,2.7-5.2,7.5-8,7.5s-7.8-5-8-7.7c0-1.4,2.8-5.2,2.8-5.2,0,0,.1-6.3,1.5-7.7h0ZM196.4,233.4s-2,3.1-1.9,4.3c0,2.2,3.6,6.3,5.5,6.3s5.4-3.9,5.5-6.2c0-1.2-1.9-4.1-1.9-4.1,0,0,.3-5.5-.8-6.6-1-1-4.3-1.1-5.2,0-1,1.1-1.1,6.3-1.1,6.3h0Z"/>
      </g>
    </g>
    <g>
      <path class="st0" d="M210.6,200"/>
      <path class="st0" d="M210.6,200"/>
      <path class="st0" d="M206.4,192.7c-2.4-3.8-4.7-8.2-6.4-13.4-2,5.3-.8,10.6.1,15,1.1,5.1,2.3,10.3-.3,18.3-1,2.9-3.5.9-2.8-.8,4.5-10.5-.9-20.3-2.2-23.2-1,3.7-4,7.8-5.6,11.4-2.2,4.9-3,11.2,0,15.8.6.9,1.3,1.7,2.2,2.4.7.6,1.5,1.1,2.4,1.6.5-.4,1.1-.7,1.7-.9.2,0,.4-.2.6-.2,1.2-.4,2.4-.7,3.7-.7,1.9,0,3.6.5,5.2,1.3.3.1.6.3.8.5,5.7-3,7.1-8.4,6.4-13.5-.1-1.1-.4-2.2-.7-3.2-.3-1.1-.7-2.1-1.1-3-1.1-2.5-2.6-4.9-4.2-7.3h0Z"/>
    </g>
    <path class="st1" d="M201.4,172.5c1.4,9.9,4.6,13.6,7.7,18.8,1.6,2.5,3.1,5,4.3,7.7h0c.5,1.1.9,2.3,1.2,3.5s.6,2.4.7,3.6c.8,6.5-1.1,13.3-8.9,16.8l-.9.4-.7-.6c-.2-.2-.4-.3-.6-.4s-.4-.2-.6-.4c-1.1-.6-2.3-.9-3.7-.9s-1.8.2-2.6.5c-.1,0-.3,0-.4.1-.7.3-1.3.7-1.8,1.1l-.7.6-.9-.4h0c-1.5-.7-2.8-1.5-3.9-2.4-1.1-.9-2-1.9-2.7-3-3.6-5.5-2.8-12.8-.3-18.4,2.1-4.6,5.7-8.4,6.7-14.2.3-2.1.7-4.2,2.5-.7.3.5.6,1.2.9,2.2-.9-3.6,1.9-11.4,2.9-14.1.9-2.3,1.7-3,2,.3h0Z"/>
    <g>
      <path d="M212.4,199.3c-1.2-2.6-2.6-5-4.2-7.5-.5-.9-1-1.7-1.5-2.5-2.5-4.1-5.1-8.3-6.3-16.7l2.1-.3c1.1,8,3.5,11.8,6,15.9.5.8,1,1.6,1.5,2.5,1.6,2.6,3.1,5,4.4,7.8v.2c0,0,0,.3,0,.3h-1.2l-.9.4Z"/>
      <path class="st3" d="M213.3,198.9"/>
      <path d="M206.8,223.7l-.9-1.9c8.5-3.9,8.9-11.5,8.3-15.7-.1-1-.4-2.1-.7-3.4-.3-1.1-.7-2.2-1.2-3.3l2-.9c.5,1.1.9,2.4,1.3,3.5.4,1.4.7,2.6.8,3.8.6,4.8.2,13.5-9.5,17.9Z"/>
      <polygon points="205.3 224.4 204 223.4 205.4 221.7 205.6 221.9 205.9 221.8 206.8 223.7 205.3 224.4"/>
      <path d="M195.7,223.4l-1.4-1.6c.6-.5,1.3-1,2.1-1.3.2,0,.3-.1.5-.2,1-.3,2-.5,3-.5,1.4,0,2.9.4,4.2,1.1h.2c.2.2.3.3.5.5,0,0,0,0,.1,0,.1,0,.3.2.5.4l-1.5,1.5s-.1,0-.2-.2c0,0-.2-.1-.2-.2,0,0-.2-.1-.3-.2,0,0-.1,0-.2-.1-1-.5-2.1-.8-3.2-.8s-1.5.1-2.3.4c-.1,0-.2,0-.3,0h0c-.6.3-1.1.6-1.6,1Z"/>
      <polygon points="194.4 224.4 192.9 223.7 193.3 222.8 193.3 221.7 193.6 221.7 194.1 221.9 194.4 221.7 195.7 223.4 194.4 224.4"/>
      <path d="M192.8,223.7c-1.5-.7-2.8-1.5-4.1-2.5-1.1-.9-2.1-2-3-3.3-3.4-5.1-3.5-12.3-.4-19.4.7-1.7,1.7-3.3,2.6-4.8,1.7-2.7,3.4-5.6,4-9.1.3-1.7.5-3.2,1.8-3.4.7-.1,1.2.2,1.7.8.5-3.2,1.7-7,2.9-10.1.6-1.5,1.3-2.8,2.5-2.6,1.2.2,1.5,1.8,1.6,3.2h-2c0,.2,0,.2,0,.2-2.4,6.3-3.4,11.2-2.8,13.4l-2,.6c-.3-.9-.6-1.5-.9-2-.1-.3-.3-.5-.4-.6,0,.4-.1.8-.2,1-.7,4-2.5,7-4.3,9.9-.9,1.5-1.8,3-2.5,4.6-2.8,6.4-2.8,12.9.2,17.3.7,1.1,1.6,2,2.5,2.8,1.1.9,2.3,1.6,3.7,2.3l-.9,1.9Z"/>
    </g>
    <path d="M196.7,183.5s4.5,9.3,5.1,14.4c.5,4.7-4.6,14.4-4.6,14.4,0,0,2.5-9.1,2.1-13.9-.3-4.3-4.3-12.8-4.3-12.8l1.6-2.1h0Z"/>
    <g>
      <path d="M259,275.6c-7.2,0-13.5-2.7-19.1-5.1h-.2c-2.9-1.3-5.8-2.6-8.6-3.3-9.9-2.5-14.9-.5-20.2,1.5-.4.1-.8.3-1.2.4-3.2,1.2-6,2.3-9.5,2.5v-.3c3.5-.2,6.2-1.3,9.4-2.5.4-.1.8-.3,1.2-.4,5.4-2,10.4-4,20.4-1.5,2.8.7,5.8,2,8.6,3.2h.2c6.2,2.7,13.2,5.7,21.3,5.1v.3c-.7,0-1.5,0-2.2,0Z"/>
      <polygon points="261.4 275.4 261.1 275.4 261.8 272.7 262.1 272.8 261.4 275.4"/>
      <path d="M261.9,272.9c-3.5-2.8-4.7-7.9-5.7-12.9h0c-.2-1.2-.5-2.6-.9-3.9h.3c.4,1.3.6,2.7.9,3.8h0c1.1,5,2.2,10.1,5.6,12.8l-.2.2Z"/>
      <polygon points="255.2 256.1 255 255.2 254 255.1 254 254.8 255.2 254.9 255.5 256 255.2 256.1"/>
      <path d="M254.1,255.1c-5.1-.4-8.8-1.7-13-3.3-.8-.3-1.6-.6-2.5-.9-1-.3-1.9-.8-2.8-1.2-1.2-.6-2.5-1.2-4.2-1.7-7.3-2.3-14.7-.4-21.2,1.2-.5.1-.9.2-1.4.3-1.5.4-2.9,1-4.3,1.7-1.8.9-3.5,1.7-5.4,1.7v-.3c1.7,0,3.4-.8,5.2-1.7,1.4-.6,2.8-1.3,4.3-1.7.4-.1.9-.2,1.4-.3,6.6-1.7,14-3.6,21.4-1.2,1.7.5,2.9,1.1,4.2,1.7.9.4,1.8.8,2.8,1.2.9.3,1.7.6,2.5.9,4.2,1.5,7.9,2.9,12.9,3.3v.3Z"/>
      <rect x="198.9" y="252.7" width=".5" height=".3"/>
      <path d="M147.5,255.1c-.4,0-.9,0-1.3,0v-.3c5.2.2,9.3-.8,15-2.9,1-.3,2.2-.9,3.4-1.5,1.6-.8,3.3-1.6,5-2.1,7.9-2.4,15.3-.6,21.9,1.1,1.6.4,2.7,1.2,3.7,1.8,1.2.8,2.2,1.5,3.8,1.5v.3c-1.8,0-2.8-.8-4-1.6-1-.7-2-1.4-3.6-1.8-6.8-1.7-13.9-3.5-21.7-1.1-1.6.5-3.3,1.3-4.9,2.1-1.2.6-2.4,1.2-3.4,1.5-5.2,1.9-9.1,2.9-13.7,2.9Z"/>
      <polygon points="144.9 256.1 144.6 256 145 254.9 146.1 254.8 146.1 255.1 145.2 255.2 144.9 256.1"/>
      <path d="M138.2,272.9l-.2-.2c3.5-2.8,4.6-8.1,5.6-12.8.1-.6.3-1.1.4-1.7.2-.7.3-1.4.5-2.2h.3c-.2.8-.4,1.6-.5,2.3-.1.6-.3,1.1-.4,1.7-1,4.7-2.2,10.1-5.8,12.9Z"/>
      <rect x="138.4" y="272.7" width=".3" height="2.7" transform="translate(-73.4 51.8) rotate(-16.8)"/>
      <path d="M141.4,275.6c-.8,0-1.6,0-2.4-.1v-.3c8.3.7,15.3-2.4,21.5-5.1,3.1-1.4,6-2.5,8.6-3.2,9.9-2.5,14.8-.6,20.4,1.5.4.1.7.3,1.1.4,3.3,1.2,6.1,2.3,9.6,2.5v.3c-3.6-.3-6.5-1.4-9.7-2.6-.4-.1-.7-.3-1.1-.4-5.6-2.1-10.5-4-20.2-1.5-2.6.7-5.4,1.9-8.6,3.2-5.6,2.5-11.9,5.2-19.2,5.2Z"/>
    </g>
  </g>
</svg>